<?xml version="1.0" standalone="no"?><!DOCTYPE svg PUBLIC "-//W3C//DTD SVG 1.1//EN" "http://www.w3.org/Graphics/SVG/1.1/DTD/svg11.dtd"><svg t="1532509503244" class="icon" style="" viewBox="0 0 1024 1024" version="1.1" xmlns="http://www.w3.org/2000/svg" p-id="1571" xmlns:xlink="http://www.w3.org/1999/xlink" width="200" height="200"><defs><style type="text/css"></style></defs><path d="M546.292 553.253c-64.586 0-125.305-25.152-170.975-70.822-45.666-45.668-70.815-106.386-70.815-170.966 0-64.582 25.149-125.299 70.815-170.966 45.668-45.669 106.388-70.822 170.975-70.822 64.586 0 125.304 25.151 170.975 70.822 45.666 45.667 70.815 106.386 70.815 170.966 0 64.582-25.15 125.299-70.815 170.966-45.668 45.67-106.389 70.822-170.975 70.822zM546.292 159.615c-83.731 0-151.85 68.12-151.85 151.85s68.12 151.851 151.85 151.851 151.851-68.12 151.851-151.851-68.121-151.85-151.851-151.85zM265.122 960.952c-53.324 0-103.454-20.766-141.156-58.473-37.697-37.702-58.458-87.826-58.458-141.14s20.761-103.439 58.458-141.141c37.702-37.707 87.832-58.473 141.156-58.473s103.454 20.766 141.156 58.473c37.698 37.702 58.459 87.827 58.459 141.141s-20.761 103.438-58.459 141.141c-37.703 37.706-87.832 58.472-141.156 58.472zM265.122 651.663c-60.474 0-109.674 49.199-109.674 109.674 0 60.474 49.2 109.673 109.674 109.673 60.475 0 109.674-49.199 109.674-109.673 0-60.475-49.2-109.674-109.674-109.674zM799.346 890.659c-86.812 0-157.438-70.627-157.438-157.438s70.627-157.438 157.438-157.438 157.438 70.627 157.438 157.438-70.628 157.438-157.438 157.438zM799.346 665.722c-37.219 0-67.499 30.28-67.499 67.499s30.28 67.499 67.499 67.499 67.499-30.28 67.499-67.499-30.28-67.499-67.499-67.499zM395.262 457.034l77.123 46.273-84.352 140.587-77.123-46.273 84.353-140.588zM727.103 431.918l84.349 168.697-80.442 40.222-84.349-168.697 80.442-40.222z" p-id="1572"></path></svg>